<svg xmlns="http://www.w3.org/2000/svg" version="1.1" xmlns:xlink="http://www.w3.org/1999/xlink" xmlns:svgjs="http://svgjs.dev/svgjs" viewBox="0 0 800 800"><defs><linearGradient x1="50%" y1="0%" x2="50%" y2="100%" id="ffflurry-grad" gradientTransform="rotate(270)"><stop stop-color="#161513" stop-opacity="1" offset="0%"></stop><stop stop-color="hsl(1.4, 100%, 67%)" stop-opacity="1" offset="45%"></stop><stop stop-color="hsl(167, 52%, 78%)" stop-opacity="1" offset="100%"></stop></linearGradient></defs><rect width="100%" height="100%" fill="#161513"></rect><g fill="url(#ffflurry-grad)"><rect width="705" height="2" x="330.5" y="275" rx="1" transform="rotate(308, 683, 276)" opacity="0.18"></rect><rect width="680" height="2" x="-227" y="487" rx="1" transform="rotate(308, 113, 488)" opacity="0.45"></rect><rect width="331" height="2" x="454.5" y="732" rx="1" transform="rotate(308, 620, 733)" opacity="0.60"></rect><rect width="347" height="2" x="-75.5" y="289" rx="1" transform="rotate(308, 98, 290)" opacity="0.57"></rect><rect width="367" height="2" x="550.5" y="606" rx="1" transform="rotate(308, 734, 607)" opacity="0.62"></rect><rect width="404" height="2" x="385" y="89" rx="1" transform="rotate(308, 587, 90)" opacity="0.09"></rect><rect width="742" height="2" x="-37" y="415" rx="1" transform="rotate(308, 334, 416)" opacity="0.08"></rect><rect width="738" height="2" x="-257" y="687" rx="1" transform="rotate(308, 112, 688)" opacity="0.12"></rect><rect width="639" height="2" x="-188.5" y="95" rx="1" transform="rotate(308, 131, 96)" opacity="0.95"></rect><rect width="540" height="2" x="78" y="168" rx="1" transform="rotate(308, 348, 169)" opacity="0.61"></rect><rect width="342" height="2" x="135" y="700" rx="1" transform="rotate(308, 306, 701)" opacity="0.55"></rect><rect width="401" height="2" x="254.5" y="642" rx="1" transform="rotate(308, 455, 643)" opacity="0.49"></rect><rect width="690" height="2" x="227" y="469" rx="1" transform="rotate(308, 572, 470)" opacity="0.40"></rect></g></svg>